<?xml version="1.0" encoding="utf-8"?>
<!-- Generator: Adobe Illustrator 16.0.0, SVG Export Plug-In . SVG Version: 6.00 Build 0)  -->
<!DOCTYPE svg PUBLIC "-//W3C//DTD SVG 1.1//EN" "http://www.w3.org/Graphics/SVG/1.1/DTD/svg11.dtd">
<svg version="1.1" id="Layer_1" xmlns="http://www.w3.org/2000/svg" xmlns:xlink="http://www.w3.org/1999/xlink" x="0px" y="0px"
	 width="150px" height="40px" viewBox="0 0 150 40" enable-background="new 0 0 150 40" xml:space="preserve">
<g>
	<g>
		<defs>
			<rect id="SVGID_1_" x="2" y="6.403" width="146.202" height="30.194"/>
		</defs>
		<clipPath id="SVGID_2_">
			<use xlink:href="#SVGID_1_"  overflow="visible"/>
		</clipPath>
		<g clip-path="url(#SVGID_2_)">
			<path fill="#F05D23" d="M15.376,25.771l-7.889-0.018l-5.232,3.141v1.033h24.948V6.988c-12.474,0-18.842,10.839-18.842,16.702
				L15.376,25.771z"/>
			<path fill="#010101" d="M54.247,11.875c1.432,0,2.592-1.15,2.592-2.57c0-1.419-1.161-2.569-2.592-2.569
				c-1.432,0-2.593,1.15-2.593,2.569C51.654,10.724,52.815,11.875,54.247,11.875z"/>
			<path fill="#010101" d="M50.026,18.322c0,5.775-4.328,10.234-10.019,10.234h-8.247V8.087h8.247
				C45.698,8.087,50.026,12.546,50.026,18.322z M45.493,18.322c0-3.513-2.249-5.708-5.486-5.708h-3.511v11.45h3.543
				c3.237-0.033,5.452-2.229,5.452-5.741L45.493,18.322z"/>
			<path fill="#010101" d="M56.53,13.29h-4.601v15.269h4.601V13.29z"/>
			<path fill="#010101" d="M74.985,13.356v14.491c0,5.133-4.022,7.295-8.111,7.295c-3.204,0-5.78-0.684-7.814-2.764l2.496-3.152
				c1.77,1.613,3.861,2.059,5.491,1.896c2.137-0.209,3.477-1.113,3.477-3.275v-1.42c-1.022,1.252-2.487,1.994-4.499,1.994
				c-4.362,0-7.565-3.547-7.565-7.736s3.203-7.736,7.565-7.736c2.01,0,3.477,0.744,4.499,1.993v-1.554h4.464v-0.034L74.985,13.356z
				 M70.486,20.686c0-2.094-1.533-3.546-3.714-3.546c-2.181,0-3.714,1.418-3.714,3.546c0,2.129,1.534,3.547,3.714,3.547
				S70.486,22.78,70.486,20.686z"/>
			<path fill="#010101" d="M79.652,11.875c1.432,0,2.593-1.15,2.593-2.57c0-1.419-1.161-2.569-2.593-2.569
				c-1.431,0-2.593,1.15-2.593,2.569C77.06,10.724,78.222,11.875,79.652,11.875z"/>
			<path fill="#010101" d="M81.973,13.29h-4.601v15.269h4.601V13.29z"/>
			<path fill="#010101" d="M105.333,18.593c0-5.945-4.804-10.505-10.733-10.505s-10.734,4.561-10.734,10.505
				S88.67,29.098,94.6,29.098c1.738,0,3.408-0.406,4.839-1.08l3.249,3.268l3.196-2.99l-2.901-3.051
				c1.464-1.823,2.351-4.119,2.351-6.654V18.593L105.333,18.593z M94.565,24.639c-0.886,0-1.738-0.168-2.487-0.506
				c-0.683-0.303-1.33-0.709-1.84-1.217c-1.159-1.08-1.875-2.634-1.875-4.323c0-3.345,2.76-6.047,6.168-6.047
				s6.169,2.702,6.169,6.047C100.768,21.938,97.974,24.639,94.565,24.639z"/>
			<path fill="#010101" d="M122.045,13.256v15.269h-4.6v-1.42c-0.818,1.115-2.387,1.859-4.396,1.859c-3.102,0-5.76-2.195-5.76-6.316
				v-9.391h4.602v8.681c0,1.892,1.193,2.771,2.692,2.771c1.704,0,2.862-0.979,2.862-3.141v-8.311h4.602L122.045,13.256z"/>
			<path fill="#010101" d="M126.747,11.875c1.433,0,2.594-1.15,2.594-2.57c0-1.419-1.161-2.569-2.594-2.569
				c-1.432,0-2.592,1.15-2.592,2.569C124.155,10.724,125.315,11.875,126.747,11.875z"/>
			<path fill="#010101" d="M129.048,13.29h-4.602v15.269h4.602V13.29z"/>
			<path fill="#010101" d="M147.947,20.975c0,4.561-3.338,8.041-7.359,8.041c-2.077,0-3.577-0.711-4.6-1.859v7.533h-4.602V13.341
				h4.602v1.419c1.021-1.149,2.52-1.858,4.6-1.858C144.611,12.936,147.947,16.448,147.947,20.975z M143.398,21.059
				c0-2.298-1.535-3.716-3.647-3.716s-3.646,1.418-3.646,3.716c0,2.297,1.534,3.715,3.646,3.715S143.398,23.355,143.398,21.059z"/>
		</g>
	</g>
</g>
</svg>
