<svg width="48" height="48" viewBox="0 0 48 48" fill="none" xmlns="http://www.w3.org/2000/svg">
<path d="M26.818 5.02415C25.0108 4.29143 22.9892 4.29143 21.182 5.02415L6.186 11.1042C5.54007 11.3658 4.98695 11.8143 4.5975 12.3923C4.20804 12.9702 4 13.6512 4 14.3482V33.6522C4 34.3491 4.20804 35.0301 4.5975 35.608C4.98695 36.186 5.54007 36.6345 6.186 36.8961L21.182 42.9762C21.462 43.0901 21.75 43.1861 22.038 43.2661C22.058 43.1161 22.088 42.9661 22.126 42.8141L23.042 39.1541C23.366 37.8581 24.036 36.6741 24.982 35.7302L25.502 35.2101V21.5302L41 15.5442V22.0142C42.0258 21.9464 43.0532 22.1197 44 22.5202V14.3482C44 13.6512 43.792 12.9702 43.4025 12.3923C43.0131 11.8143 42.4599 11.3658 41.814 11.1042L26.818 5.02415ZM22.31 7.80415C23.3939 7.36495 24.6061 7.36495 25.69 7.80415L38.876 13.1502L33.536 15.2102L18.482 9.35615L22.31 7.80415ZM14.43 11.0002L29.384 16.8162L24.004 18.8941L9.18 13.1282L14.43 11.0002ZM7 15.5002L22.5 21.5282V40.2701C22.4361 40.2476 22.3728 40.2236 22.31 40.1982L7.312 34.1182C7.21969 34.0807 7.14067 34.0165 7.08508 33.9338C7.02949 33.8512 6.99986 33.7538 7 33.6542V15.5002ZM38.2 25.3402L26.394 37.1461C25.7062 37.8343 25.2181 38.6963 24.982 39.6401L24.066 43.3021C23.9749 43.6665 23.9797 44.0482 24.0801 44.4102C24.1804 44.7721 24.3727 45.1018 24.6384 45.3673C24.9041 45.6328 25.234 45.8249 25.596 45.9249C25.958 46.025 26.3397 46.0295 26.704 45.9381L30.364 45.0241C31.3088 44.7879 32.1716 44.2991 32.86 43.6101L44.664 31.8062C45.4995 30.9445 45.9627 29.7888 45.9535 28.5886C45.9443 27.3884 45.4636 26.2399 44.615 25.3911C43.7665 24.5423 42.6182 24.0612 41.418 24.0516C40.2178 24.0421 39.0619 24.5049 38.2 25.3402Z" fill="#B8B8B8"/>
</svg>
