<svg width="12" height="12" viewBox="0 0 12 12" fill="none" xmlns="http://www.w3.org/2000/svg">
<path d="M6.001 1C8.763 1 11.002 3.239 11.002 6.001C11.002 8.7625 8.763 11.0015 6.001 11.0015C3.239 11.0015 1 8.7625 1 6.001C1 3.239 3.239 1 6.001 1ZM6.001 1.75C5.4389 1.7439 4.88118 1.84935 4.36011 2.06024C3.83904 2.27112 3.36497 2.58326 2.96533 2.97858C2.5657 3.37391 2.24844 3.84457 2.03191 4.36332C1.81539 4.88207 1.7039 5.43862 1.7039 6.00075C1.7039 6.56288 1.81539 7.11943 2.03191 7.63818C2.24844 8.15693 2.5657 8.62759 2.96533 9.02292C3.36497 9.41824 3.83904 9.73038 4.36011 9.94126C4.88118 10.1522 5.4389 10.2576 6.001 10.2515C7.11701 10.2344 8.18152 9.77903 8.96468 8.98377C9.74783 8.18851 10.1868 7.11714 10.1868 6.001C10.1868 4.88486 9.74783 3.81349 8.96468 3.01823C8.18152 2.22297 7.11701 1.76762 6.001 1.7505V1.75ZM5.999 5.25C6.0897 5.24988 6.17738 5.28265 6.24578 5.34222C6.31418 5.40179 6.35866 5.48414 6.371 5.574L6.3745 5.625L6.376 8.376C6.37597 8.47101 6.33988 8.56247 6.27501 8.6319C6.21015 8.70132 6.12135 8.74354 6.02656 8.75001C5.93177 8.75649 5.83805 8.72674 5.76435 8.66678C5.69065 8.60683 5.64245 8.52113 5.6295 8.427L5.626 8.3765L5.6245 5.6255C5.6245 5.52604 5.66401 5.43066 5.73433 5.36034C5.80466 5.29001 5.90004 5.2505 5.9995 5.2505L5.999 5.25ZM6.001 3.502C6.06789 3.49988 6.13453 3.51123 6.19695 3.53537C6.25937 3.5595 6.3163 3.59594 6.36437 3.64251C6.41244 3.68908 6.45065 3.74483 6.47675 3.80646C6.50285 3.86808 6.5163 3.93432 6.5163 4.00125C6.5163 4.06818 6.50285 4.13442 6.47675 4.19604C6.45065 4.25767 6.41244 4.31342 6.36437 4.35999C6.3163 4.40656 6.25937 4.443 6.19695 4.46713C6.13453 4.49127 6.06789 4.50262 6.001 4.5005C5.87133 4.4964 5.74834 4.442 5.65806 4.34882C5.56778 4.25564 5.5173 4.13099 5.5173 4.00125C5.5173 3.87151 5.56778 3.74686 5.65806 3.65368C5.74834 3.5605 5.87133 3.5061 6.001 3.502Z" fill="#999999"/>
</svg>
