<svg viewBox="0 0 218 46" fill="none" xmlns="http://www.w3.org/2000/svg"><g clip-path="url(#clip0_1198_1735)"><path d="M19.9449 28.8797L8.18069 28.8523L0.379639 33.5361V35.0764H37.5785V0.871613C18.979 0.871613 9.48405 17.0334 9.48405 25.7761L19.9449 28.8797Z" fill="#F05A09" class="hat"></path><path d="M77.9041 8.15805C80.0389 8.15805 81.7696 6.44258 81.7696 4.32643C81.7696 2.21029 80.0389 0.494812 77.9041 0.494812C75.7692 0.494812 74.0386 2.21029 74.0386 4.32643C74.0386 6.44258 75.7692 8.15805 77.9041 8.15805Z" fill="#E6E7E8"></path><path d="M71.6102 17.772C71.6102 26.3842 65.1571 33.0332 56.6725 33.0332H44.3755V2.51073H56.6725C65.1571 2.51073 71.6102 9.15978 71.6102 17.772ZM64.8514 17.772C64.8514 12.5348 61.4975 9.26078 56.6704 9.26078H51.4357V26.3358H56.7192C61.5463 26.2853 64.8493 23.0113 64.8493 17.7741L64.8514 17.772Z" fill="#E6E7E8"></path><path d="M81.3089 10.2685H74.4482V33.0352H81.3089V10.2685Z" fill="#E6E7E8"></path><path d="M108.826 10.3673V31.9746C108.826 39.6295 102.829 42.853 96.7328 42.853C91.9566 42.853 88.1145 41.8325 85.0811 38.7331L88.8023 34.0304C91.4408 36.4375 94.5591 37.1003 96.9896 36.8604C100.176 36.5469 102.173 35.1982 102.173 31.9746V29.86C100.649 31.7242 98.4649 32.831 95.4655 32.831C88.9615 32.831 84.1853 27.5433 84.1853 21.2962C84.1853 15.049 88.9615 9.76134 95.4655 9.76134C98.4628 9.76134 100.649 10.8702 102.173 12.7324V10.4157H108.83V10.3652L108.826 10.3673ZM102.118 21.2962C102.118 18.1737 99.832 16.0085 96.58 16.0085C93.3279 16.0085 91.0417 18.1232 91.0417 21.2962C91.0417 24.4692 93.3279 26.5839 96.58 26.5839C99.832 26.5839 102.118 24.4187 102.118 21.2962Z" fill="#E6E7E8"></path><path d="M115.786 8.15805C117.921 8.15805 119.652 6.44258 119.652 4.32643C119.652 2.21029 117.921 0.494812 115.786 0.494812C113.652 0.494812 111.921 2.21029 111.921 4.32643C111.921 6.44258 113.652 8.15805 115.786 8.15805Z" fill="#E6E7E8"></path><path d="M119.246 10.2685H112.386V33.0352H119.246V10.2685Z" fill="#E6E7E8"></path><path d="M154.078 18.1758C154.078 9.31109 146.914 2.51265 138.073 2.51265C129.232 2.51265 122.068 9.3132 122.068 18.1758C122.068 27.0384 129.232 33.8389 138.073 33.8389C140.665 33.8389 143.155 33.2351 145.288 32.2272L150.134 37.1003L154.9 32.6417L150.572 28.0947C152.756 25.374 154.078 21.9506 154.078 18.1716V18.1758ZM138.022 27.192C136.702 27.192 135.43 26.9395 134.314 26.4366C133.297 25.9842 132.331 25.3782 131.569 24.6228C129.841 23.0111 128.773 20.6944 128.773 18.1758C128.773 13.189 132.889 9.1596 137.971 9.1596C143.053 9.1596 147.169 13.189 147.169 18.1758C147.271 23.1626 143.104 27.192 138.022 27.192Z" fill="#E6E7E8"></path><path d="M178.997 10.218V32.9847H172.137V30.87C170.918 32.5323 168.579 33.6411 165.582 33.6411C160.958 33.6411 156.995 30.3671 156.995 24.2231V10.2201H163.856V23.1647C163.856 25.9842 165.635 27.2951 167.87 27.2951C170.411 27.2951 172.139 25.8348 172.139 22.6113V10.2201H178.999L178.997 10.218Z" fill="#E6E7E8"></path><path d="M186.009 8.15805C188.143 8.15805 189.874 6.44258 189.874 4.32643C189.874 2.21029 188.143 0.494812 186.009 0.494812C183.874 0.494812 182.143 2.21029 182.143 4.32643C182.143 6.44258 183.874 8.15805 186.009 8.15805Z" fill="#E6E7E8"></path><path d="M189.439 10.2685H182.578V33.0352H189.439V10.2685Z" fill="#E6E7E8"></path><path d="M217.62 21.7273C217.62 28.5279 212.641 33.7146 206.646 33.7146C203.547 33.7146 201.312 32.6562 199.785 30.9434V42.1753H192.925V10.3461H199.785V12.4607C201.309 10.748 203.545 9.68961 206.646 9.68961C212.643 9.7401 217.62 14.9773 217.62 21.7273ZM210.834 21.8515C210.834 18.426 208.548 16.3113 205.398 16.3113C202.248 16.3113 199.961 18.426 199.961 21.8515C199.961 25.277 202.248 27.3917 205.398 27.3917C208.548 27.3917 210.834 25.277 210.834 21.8515Z" fill="#E6E7E8"></path></g><defs><clipPath id="clip0_1198_1735"><rect width="218" height="45.0217" fill="#E6E7E8"></rect></clipPath></defs></svg>