<?xml version="1.0" encoding="UTF-8"?><svg id="blender_original" xmlns="http://www.w3.org/2000/svg" viewBox="0 0 63.91 63.91"><defs><style>.cls-1{fill:#bababa;}</style></defs><path class="cls-1" d="m63.89,31.96v31.29c0,.17-.01.33,0,.5.01.12-.02.16-.15.15-.14-.01-.28,0-.43,0H.6c-.19,0-.45.07-.55-.02-.1-.1-.02-.36-.02-.55,0-20.91,0-41.81,0-62.72,0-.14.01-.29,0-.43C.01.05.05.01.17.02c.14.01.28,0,.43,0h62.72c.19,0,.45-.07.55.02.1.1.02.36.02.55v31.36Zm-31.22-.04c0-3.23,0-6.46,0-9.69q0-.68-.65-.68c-2.64,0-5.27-.01-7.91,0-.74,0-1.48-.01-2.23.1-.95.14-1.82.43-2.62.9-.47.28-.96.59-1.26,1.06-.31.49-.63.97-.94,1.45-.96,1.48-1.93,2.95-2.86,4.45-.46.74-1.01,1.43-1.44,2.18-.44.75-.98,1.43-1.39,2.2-.41.77-.99,1.44-1.44,2.19-.46.76-.98,1.49-1.44,2.25-.57.95-1.24,1.85-1.81,2.82-.17.29-.37.55-.55.84-.1.16-.17.21.08.21,1.92,0,3.85,0,5.77,0,.22,0,.34-.08.44-.26.18-.33.38-.65.59-.97.56-.86,1.17-1.69,1.68-2.58.42-.74.91-1.42,1.35-2.15.44-.72.95-1.41,1.36-2.14.42-.74.92-1.42,1.35-2.15.49-.82.99-1.63,1.51-2.44.44-.69.93-1.36,1.31-2.1.3-.14.49-.48.87-.47,1.57,0,3.14,0,4.7,0,.18,0,.25.04.24.23-.01.64-.01,1.28,0,1.92,0,.22-.06.28-.28.27-1.12-.01-2.23,0-3.35,0-.25,0-.38.07-.53.32-.66,1.06-1.39,2.09-2.07,3.13-.34.52-.6,1.1-1.01,1.58-.09.11-.03.24.1.25.17,0,.33,0,.5,0,2.09,0,4.18,0,6.27,0,.36,0,.37,0,.37.39,0,2.09,0,4.18,0,6.27,0,.24,0,.48,0,.71,0,.17.08.19.22.19,1.62,0,3.23,0,4.85,0,.14,0,.23-.02.22-.19,0-.17,0-.33,0-.5v-9.62Zm3.14.04c0,3.3,0,6.6,0,9.91,0,.35,0,.36.33.36,1.05,0,2.09,0,3.14,0,.52,0,1.05,0,1.57,0,.17,0,.27-.03.25-.23-.02-.14,0-.28,0-.43v-13.9c0-.17,0-.33,0-.5,0-.15.04-.21.2-.2.14,0,.28,0,.43,0h13.9c.17,0,.33,0,.5,0,.25-.01.36-.13.37-.39,0-.26,0-.52,0-.78,0-1.26,0-2.52,0-3.78,0-.36-.1-.45-.44-.46-.12,0-.24,0-.36,0h-19.1c-.14,0-.29-.01-.43,0-.2.02-.34.13-.34.35,0,.17,0,.33,0,.5v9.55Zm14.04,2.71c1.97,0,3.94,0,5.91,0,.19,0,.29-.02.29-.26-.01-1.59-.01-3.18,0-4.77,0-.25-.11-.25-.3-.25-3.94,0-7.88,0-11.82,0-.3,0-.29.12-.29.33,0,1.54,0,3.09,0,4.63,0,.31,0,.32.36.32,1.95,0,3.89,0,5.84,0Z"/><path d="m32.67,31.92v9.62c0,.17,0,.33,0,.5,0,.17-.08.19-.22.19-1.62,0-3.23,0-4.85,0-.14,0-.22-.02-.22-.19,0-.24,0-.47,0-.71,0-2.09,0-4.18,0-6.27,0-.38,0-.39-.37-.39-2.09,0-4.18,0-6.27,0-.17,0-.33,0-.5,0-.13,0-.19-.14-.1-.25.41-.48.67-1.06,1.01-1.58.69-1.05,1.41-2.07,2.07-3.13.15-.24.28-.32.53-.32,1.12,0,2.23,0,3.35,0,.21,0,.28-.06.28-.27-.01-.64-.01-1.28,0-1.92,0-.19-.07-.23-.24-.23-1.57,0-3.14,0-4.7,0-.39,0-.57.33-.87.47-.38.73-.86,1.4-1.31,2.1-.52.8-1.02,1.62-1.51,2.44-.44.72-.94,1.41-1.35,2.15-.42.74-.93,1.42-1.36,2.14-.44.72-.93,1.41-1.35,2.15-.51.89-1.12,1.72-1.68,2.58-.21.32-.4.64-.59.97-.1.18-.22.26-.44.26-1.92,0-3.85,0-5.77,0-.25,0-.19-.05-.08-.21.18-.29.39-.55.55-.84.56-.97,1.23-1.86,1.81-2.82.46-.76.98-1.49,1.44-2.25.45-.75,1.03-1.42,1.44-2.19.41-.77.95-1.45,1.39-2.2.44-.75.99-1.44,1.44-2.18.92-1.5,1.89-2.97,2.86-4.45.31-.48.63-.97.94-1.45.3-.47.79-.79,1.26-1.06.81-.47,1.68-.76,2.62-.9.75-.11,1.49-.1,2.23-.1,2.64-.02,5.27,0,7.91,0q.65,0,.65.68c0,3.23,0,6.46,0,9.69Z"/><path d="m35.81,31.96v-9.55c0-.17,0-.33,0-.5,0-.23.14-.33.34-.35.14-.02.28,0,.43,0h19.1c.12,0,.24,0,.36,0,.34.01.44.11.44.46,0,1.26,0,2.52,0,3.78,0,.26,0,.52,0,.78,0,.26-.13.38-.37.39-.17,0-.33,0-.5,0h-13.9c-.14,0-.29,0-.43,0-.16-.01-.21.05-.2.2,0,.17,0,.33,0,.5v13.9c0,.14-.01.29,0,.43.02.2-.08.23-.25.23-.52,0-1.05,0-1.57,0-1.05,0-2.09,0-3.14,0-.32,0-.33,0-.33-.36,0-3.3,0-6.6,0-9.91Z"/><path d="m49.85,34.67c-1.95,0-3.89,0-5.84,0-.36,0-.36,0-.36-.32,0-1.54,0-3.09,0-4.63,0-.21-.02-.34.29-.33,3.94.01,7.88.01,11.82,0,.19,0,.3,0,.3.25-.01,1.59-.01,3.18,0,4.77,0,.24-.1.26-.29.26-1.97,0-3.94,0-5.91,0Z"/></svg>