<?xml version="1.0" encoding="UTF-8"?><svg id="blender_original" xmlns="http://www.w3.org/2000/svg" viewBox="0 0 184.16 24.33"><defs><style>.cls-1{fill:#fff;}.cls-2{fill:#909090;}.cls-3{fill:#1d1d1b;}.cls-4{fill:#2a2522;}</style></defs><path class="cls-2" d="m13.08,1.03L.35,20.9c-.67,1.04-.37,2.42.67,3.08.36.23.78.35,1.21.35h25.45c1.23,0,2.23-1,2.23-2.24,0-.42-.12-.84-.35-1.2L16.84,1.03C16.18,0,14.8-.31,13.76.35c-.27.17-.5.41-.68.68"/><polygon class="cls-1" points="14.96 5.03 4.82 20.86 25.1 20.86 14.96 5.03"/><polygon class="cls-4" points="11.72 16.43 18.16 16.43 18.16 14.02 19.96 14.02 19.96 20.1 18.16 20.1 18.16 17.66 11.72 17.66 11.72 20.1 9.95 20.1 9.95 14.02 11.72 14.02 11.72 16.43"/><path class="cls-4" d="m17.38,11.76h-1.66v-.21c.01-.09-.02-.19-.08-.26-.11-.14-.35-.15-.58-.15h-.27c-.21-.03-.43,0-.62.09-.11.1-.16.25-.14.39v.07c0,.14,0,.26.09.34.15.08.32.12.49.11l1.5.14c.33,0,.66.09.94.25.47.34.49.85.49,1.45v.26c0,.33-.07.98-.39,1.27-.51.42-1.32.32-1.8.32h-.89c-.27,0-1.18.07-1.68-.28-.39-.28-.37-.82-.37-1.38v-.35h1.58v.27c-.02.12,0,.24.07.35.14.16.46.15.76.15h.39c.25,0,.48.02.64-.12.08-.07.12-.18.12-.29v-.17c0-.12-.05-.24-.14-.32-.12-.11-.28-.17-.45-.15l-1.21-.1c-.48,0-.96-.12-1.38-.36-.31-.27-.32-.79-.32-1.18v-.23c0-.61,0-1.16.53-1.51.37-.25,1.12-.27,1.75-.27h.39c.65,0,1.23,0,1.67.24.5.28.6.92.6,1.39v.25Z"/><polygon class="cls-4" points="11.72 16.43 18.16 16.43 18.16 14.02 19.96 14.02 19.96 20.1 18.16 20.1 18.16 17.66 11.72 17.66 11.72 20.1 9.95 20.1 9.95 14.02 11.72 14.02 11.72 16.43"/><path class="cls-4" d="m17.38,11.76h-1.66v-.21c.01-.09-.02-.19-.08-.26-.11-.14-.35-.15-.58-.15h-.27c-.21-.03-.43,0-.62.09-.11.1-.16.25-.14.39v.07c0,.14,0,.26.09.34.15.08.32.12.49.11l1.5.14c.33,0,.66.09.94.25.47.34.49.85.49,1.45v.26c0,.33-.07.98-.39,1.27-.51.42-1.32.32-1.8.32h-.89c-.27,0-1.18.07-1.68-.28-.39-.28-.37-.82-.37-1.38v-.35h1.58v.27c-.02.12,0,.24.07.35.14.16.46.15.76.15h.39c.25,0,.48.02.64-.12.08-.07.12-.18.12-.29v-.17c0-.12-.05-.24-.14-.32-.12-.11-.28-.17-.45-.15l-1.21-.1c-.48,0-.96-.12-1.38-.36-.31-.27-.32-.79-.32-1.18v-.23c0-.61,0-1.16.53-1.51.37-.25,1.12-.27,1.75-.27h.39c.65,0,1.23,0,1.67.24.5.28.6.92.6,1.39v.25Z"/><polygon class="cls-3" points="51.9 4.45 51.9 21.15 47.4 21.15 47.4 14.58 41.6 14.58 41.6 21.15 37.11 21.15 37.11 4.45 41.6 4.45 41.6 10.74 47.4 10.74 47.4 4.45 51.9 4.45"/><polygon class="cls-3" points="58.35 8.12 58.35 11.13 65.48 11.13 65.48 14.23 58.35 14.23 58.35 17.48 66.11 17.48 66.11 21.15 53.86 21.15 53.86 4.45 65.97 4.45 65.97 8.12 58.35 8.12"/><path class="cls-3" d="m80.94,9.66h-4.26c.04-.48-.04-.96-.24-1.4-.25-.35-.95-.52-2.09-.52s-1.84.1-2.2.3-.54.65-.54,1.34c0,.62.16,1.03.48,1.23.28.15.59.23.91.24l.86.06c1.84.12,2.99.21,3.44.26,1.45.15,2.5.54,3.15,1.18.52.51.85,1.19.92,1.92.06.53.09,1.07.09,1.6.05,1.02-.08,2.04-.39,3.01-.47,1.17-1.54,1.9-3.19,2.21-1.05.15-2.12.22-3.18.19-2.39,0-4.05-.14-4.98-.43-1.07-.27-1.93-1.08-2.28-2.13-.25-.97-.35-1.97-.31-2.97h4.26v.35c0,.74.21,1.22.64,1.43.33.16.7.24,1.06.23h1.58c.51.03,1.03-.01,1.53-.12.36-.11.66-.39.79-.75.07-.27.11-.54.1-.82,0-.75-.27-1.21-.82-1.37-.94-.15-1.9-.24-2.85-.27-1.36-.09-2.31-.19-2.84-.28-1.4-.26-2.33-.8-2.79-1.62-.39-.69-.61-1.74-.61-3.15-.03-.87.07-1.75.32-2.59.18-.6.56-1.11,1.07-1.47.82-.55,1.77-.86,2.76-.91.93-.08,1.97-.12,3.1-.12,1.28-.05,2.56.06,3.82.31,1.85.5,2.78,1.89,2.78,4.19,0,.19,0,.47-.02.84"/><path class="cls-3" d="m96.15,9.66h-4.25c.05-.48-.04-.96-.24-1.4-.26-.35-.96-.53-2.09-.52-1.11,0-1.84.1-2.2.3s-.54.65-.54,1.34c0,.62.16,1.03.48,1.23.28.15.59.23.91.24l.86.06c1.84.12,2.99.21,3.44.26,1.45.15,2.5.54,3.15,1.18.52.51.85,1.19.92,1.92.06.53.09,1.07.08,1.6.05,1.02-.08,2.04-.39,3.01-.47,1.17-1.54,1.9-3.19,2.21-1.05.15-2.12.22-3.18.19-2.38,0-4.04-.14-4.98-.43-1.07-.27-1.93-1.08-2.27-2.13-.25-.97-.35-1.97-.31-2.97h4.26v.35c0,.74.21,1.22.63,1.43.33.15.7.23,1.06.23h1.58c.51.03,1.03-.01,1.53-.12.36-.12.65-.39.79-.75.07-.27.1-.54.1-.82,0-.75-.28-1.21-.82-1.37-.94-.15-1.89-.24-2.85-.27-1.36-.09-2.31-.19-2.84-.28-1.4-.26-2.33-.8-2.79-1.62-.4-.69-.61-1.74-.61-3.15-.03-.87.08-1.74.33-2.57.18-.59.56-1.11,1.06-1.47.82-.55,1.77-.86,2.76-.91.93-.08,1.97-.12,3.09-.12,1.28-.05,2.56.06,3.82.31,1.85.5,2.77,1.89,2.76,4.19,0,.19,0,.47-.02.84"/><polygon class="cls-3" points="102.55 8.12 102.55 11.13 109.67 11.13 109.67 14.23 102.55 14.23 102.55 17.48 110.31 17.48 110.31 21.15 98.06 21.15 98.06 4.45 110.17 4.45 110.17 8.12 102.55 8.12"/><polygon class="cls-3" points="116.34 4.45 116.34 17.31 123.37 17.31 123.37 21.15 111.85 21.15 111.85 4.45 116.34 4.45"/><path class="cls-3" d="m128.63,17.48h2.97c.93,0,1.54-.08,1.84-.24.25-.13.44-.35.53-.61.06-.23.08-.46.07-.7.03-.39-.03-.79-.19-1.15-.24-.35-.64-.54-1.06-.51l-.89-.04h-3.27v3.26Zm0-6.35h2.84c.77,0,1.23-.03,1.38-.05.15-.02.29-.07.42-.15.34-.21.51-.69.51-1.42s-.19-1.12-.58-1.28c-.31-.09-.63-.13-.95-.11h-3.62v3.01Zm-4.49,10.02V4.45h9.09c1.51,0,2.6.2,3.31.59,1.13.63,1.69,1.91,1.69,3.85.03.72-.08,1.45-.32,2.13-.29.64-.82,1.13-1.48,1.36-.31.14-.65.22-.99.26v.09c.64.02,1.27.19,1.83.51.46.3.81.75.98,1.27.19.69.27,1.41.24,2.13.04.8-.07,1.6-.33,2.36-.28.75-.85,1.35-1.58,1.67-.71.32-1.8.48-3.28.48h-9.17Z"/><polygon class="cls-3" points="144.27 8.12 144.27 11.13 151.39 11.13 151.39 14.23 144.27 14.23 144.27 17.48 152.03 17.48 152.03 21.15 139.78 21.15 139.78 4.45 151.88 4.45 151.88 8.12 144.27 8.12"/><path class="cls-3" d="m158.06,12.92h3.55c.9,0,1.43-.25,1.6-.76.14-.64.19-1.29.16-1.93,0-.91-.2-1.49-.62-1.73-.43-.17-.89-.24-1.35-.21h-3.34v4.63Zm-4.49,8.24V4.45h8.43c1.75,0,3,.17,3.73.52.93.42,1.64,1.22,1.94,2.19.22.78.31,1.59.28,2.4.04.99-.05,1.98-.27,2.95-.26.9-.96,1.6-1.86,1.86-.21.07-.55.17-1.02.28v.19c2.07.11,3.08,1.2,3.02,3.28v3.05h-4.57v-2.23c.04-1.52-.58-2.25-1.87-2.21h-3.33v4.44h-4.49Z"/><path class="cls-3" d="m176.54,11.72h7.55c.04,1.74.06,3.03.06,3.87.03.99-.1,1.97-.39,2.91-.25.69-.7,1.29-1.3,1.72-.76.54-1.67.86-2.6.91-1.03.09-2.22.13-3.57.13-1.27.05-2.54-.06-3.79-.32-1.64-.45-2.92-1.74-3.35-3.39-.26-.99-.37-2-.34-3.02,0-2.1.04-3.73.11-4.89.12-1.94.84-3.34,2.15-4.2.88-.56,1.89-.9,2.94-.99.83-.07,1.85-.11,3.07-.11,2.06,0,3.47.12,4.23.37,1.44.46,2.31,1.48,2.62,3.06.11.62.16,1.25.17,1.88h-4.53c-.02-.42-.18-.82-.45-1.14-.33-.3-1.1-.45-2.29-.45-.71-.03-1.43.06-2.12.25-.79.26-1.22,1-1.3,2.2-.03.55-.04,1.3-.04,2.27,0,1.97.1,3.21.31,3.73.16.39.47.68.87.81.6.19,1.22.28,1.85.25,1.27,0,2.12-.13,2.53-.39.5-.31.75-.92.75-1.82v-.52h-3.12l-.02-3.11Z"/></svg>