<?xml version="1.0" encoding="UTF-8"?>
<svg id="Layer_1" data-name="Layer 1" xmlns="http://www.w3.org/2000/svg" viewBox="0 0 207.1 45.35">
  <defs>
    <style>
      .cls-1 {
        opacity: .9;
      }

      .cls-2 {
        stroke-width: 0px;
      }
    </style>
  </defs>
  <g class="cls-1">
    <g>
      <path class="cls-2" d="m47.55,29.34h1.56l2.46,5.6c.29.67.57,1.38.84,2.06h.04c.27-.68.53-1.4.83-2.06l2.47-5.6h1.43l-4.67,10.5h-.29l-4.67-10.5Z"/>
      <path class="cls-2" d="m58.4,29.34h1.35v10.34h-1.35v-10.34Z"/>
      <path class="cls-2" d="m62.05,29.34h3.5c3.14,0,5.23,2.03,5.23,5.18s-2.09,5.16-5.23,5.16h-3.5v-10.34Zm3.42,9.07c2.24,0,3.93-1.43,3.93-3.89s-1.69-3.91-3.93-3.91h-2.06v7.8h2.06Z"/>
      <path class="cls-2" d="m72.54,29.34h7.23v1.27h-5.88v3.35h5.15v1.27h-5.15v3.18h5.93v1.27h-7.29v-10.34Z"/>
      <path class="cls-2" d="m81.43,29.34h4.08c2.46,0,3.95,1.24,3.95,3.49,0,1.66-.87,2.74-2.18,3.21v.12l2.5,3.24v.28h-1.47l-2.55-3.35h-2.97v3.35h-1.35v-10.34Zm4.18,5.74c1.44,0,2.46-.71,2.46-2.22s-1.02-2.25-2.59-2.25h-2.7v4.46h2.83Z"/>
      <path class="cls-2" d="m91.36,29.34h7.23v1.27h-5.88v3.35h5.15v1.27h-5.15v3.18h5.93v1.27h-7.29v-10.34Z"/>
      <path class="cls-2" d="m99.48,34.54c0-3.18,2.12-5.41,5.15-5.41,1.5,0,2.77.54,3.53,1.36l-.84,1.01c-.66-.65-1.61-1.08-2.71-1.08-2.19,0-3.75,1.71-3.75,4.12s1.53,4.11,3.7,4.11c1.94,0,3.25-1.35,3.25-3.24v-.05h-3.49v-1.29h4.86v.54c0,3.35-1.77,5.32-4.61,5.32-3,0-5.09-2.23-5.09-5.4Z"/>
      <path class="cls-2" d="m114.16,29.19h.28l4.9,10.5h-1.55l-.87-1.84h-5.24l-.87,1.84h-1.53l4.87-10.5Zm2.19,7.41l-2.02-4.71h-.07l-2.02,4.71h4.11Zm-2.05-10.96c.94,0,1.58.68,1.58,1.55s-.63,1.57-1.58,1.57-1.62-.7-1.62-1.57.68-1.55,1.62-1.55Zm0,2.26c.44,0,.72-.33.72-.71s-.28-.71-.72-.71c-.47,0-.75.33-.75.71s.28.71.75.71Z"/>
      <path class="cls-2" d="m120.55,29.34h7.23v1.27h-5.88v3.35h5.15v1.27h-5.15v3.18h5.93v1.27h-7.29v-10.34Z"/>
      <path class="cls-2" d="m130.71,32.24v7.44h-1.27v-10.5h.37l6.7,7.58v-7.43h1.27v10.5h-.37l-6.7-7.6Z"/>
      <path class="cls-2" d="m140.12,29.34h3.5c3.14,0,5.23,2.03,5.23,5.18s-2.09,5.16-5.23,5.16h-3.5v-10.34Zm3.42,9.07c2.24,0,3.93-1.43,3.93-3.89s-1.69-3.91-3.93-3.91h-2.06v7.8h2.06Z"/>
      <path class="cls-2" d="m150.61,29.34h7.23v1.27h-5.88v3.35h5.15v1.27h-5.15v3.18h5.93v1.27h-7.29v-10.34Z"/>
      <path class="cls-2" d="m161.92,38.75l.72-1.22c.85.62,1.96,1.12,3.18,1.12,1.43,0,2.31-.59,2.31-1.64,0-.92-.63-1.35-2.68-1.92-2.39-.68-3.25-1.5-3.25-3.04,0-1.71,1.37-2.92,3.71-2.92,1.38,0,2.62.45,3.36.92l-.62,1.22c-.62-.42-1.66-.85-2.78-.85-1.41,0-2.33.59-2.33,1.53,0,.82.57,1.27,2.53,1.83,2.5.73,3.42,1.55,3.42,3.16,0,1.91-1.4,2.99-3.67,2.99-1.61,0-2.99-.51-3.9-1.18Z"/>
      <path class="cls-2" d="m171.18,29.34h1.35v5.36l5.4-5.36h1.55v.22l-4.02,4.06,4.05,5.84v.22h-1.58l-3.49-5.08-1.91,1.92v3.16h-1.35v-10.34Z"/>
      <path class="cls-2" d="m179.7,34.55c0-3.02,1.97-5.43,5.11-5.43s5.11,2.36,5.11,5.36-1.99,5.44-5.11,5.44-5.11-2.34-5.11-5.38Zm5.11,4.09c2.28,0,3.74-1.81,3.74-4.12s-1.46-4.11-3.74-4.11-3.72,1.8-3.72,4.11,1.46,4.12,3.72,4.12Z"/>
      <path class="cls-2" d="m191.68,29.34h1.35v9.04h5.52v1.3h-6.88v-10.34Z"/>
      <path class="cls-2" d="m199.81,29.34h7.23v1.27h-5.88v3.35h5.15v1.27h-5.15v3.18h5.93v1.27h-7.29v-10.34Z"/>
    </g>
  </g>
  <g>
    <path class="cls-2" d="m50.08,2.84h4.14v8.69l8.54-8.69h4.66v.43l-7.3,7.7,7.59,10.74v.43h-4.87l-5.65-8.34-2.98,2.95v5.39h-4.14V2.84Z"/>
    <path class="cls-2" d="m78.38,2.55h.72l9.99,19.61h-4.6l-1.25-2.64h-9.04l-1.22,2.64h-4.58l9.96-19.61Zm3.47,13.99l-3.07-6.81h-.14l-3.04,6.81h6.25Z"/>
    <path class="cls-2" d="m91.88,2.84h4.14v15.67h10.05v3.65h-14.19V2.84Z"/>
    <path class="cls-2" d="m113.14,10.42v11.73h-3.97V2.55h.98l12.48,11.84V2.84h3.97v19.58h-.98l-12.48-11.99Z"/>
    <path class="cls-2" d="m131.36,2.84h14.91v3.5h-10.77v4.46h8.95v3.47h-8.95v4.37h10.92v3.5h-15.06V2.84Z"/>
    <path class="cls-2" d="m148.74,20.33l2.06-3.48c1.94,1.3,4.17,2.08,6.4,2.08,2.03,0,3.21-.75,3.21-2.08,0-1.22-.98-1.8-4.52-2.75-4.66-1.27-6.49-2.9-6.49-5.79,0-3.65,2.87-5.88,7.82-5.88,2.46,0,5.1.7,6.95,1.68l-1.62,3.39c-1.19-.7-3.45-1.42-5.71-1.42-2.11,0-3.33.7-3.33,1.91,0,1.1,1.01,1.77,4.17,2.61,5.1,1.36,6.92,2.9,6.92,5.82,0,3.85-2.9,6.17-7.62,6.17-3.07,0-6.29-.96-8.25-2.26Z"/>
  </g>
  <path class="cls-2" d="m37.4,0H.02v7.06C.02,13.87-.52,21.06,4.67,31.19c5.08,9.9,13.64,14.05,14.02,14.16h.04c.29-.08,5.34-2.53,9.97-8.08L.27,9.06c1.46,1.12,24.79,19.14,26.71,20.33.12-.04-1.08-1.9-1.58-2.81-1.12-2.02-2.65-1.79-4.36-3.26-1.78-1.29-2.12-4.7-4.98-5.95-3.17-1.38-3.93-3.63-5.13-6.02-1.17-1.99-3.94-2.22-4.81-4.22-.95-2.21-1.34-3.84-3.73-4.81C.87,1.7.64,1.58.42.36c0,0,.42.72.86.94,1.21.59,2.65.27,3.7,1,0,0,1.25.96,1.96,2.17,1.8,3.13,2.6,2.45,4.88,3.62,2.64,1.22,2.35,4.5,4.82,5.6,2.95,1.05,4.74,2.51,5.92,5.01.9,1.88,2.08,2.11,3.11,2.47,1.32.53,3.54,2.37,3.54,2.37-.38-.78-15.31-19.37-18.37-23.24l24.98,23.27c1.86-6.37,1.58-11.54,1.58-16.51V0Z"/>
</svg>