<?xml version="1.0" encoding="UTF-8"?>
<svg width="156px" height="64px" viewBox="0 0 156 64" version="1.1" xmlns="http://www.w3.org/2000/svg" xmlns:xlink="http://www.w3.org/1999/xlink">
    <defs>
        <polygon id="path-1" points="0 0 156 0 156 64 0 64"></polygon>
    </defs>
    <g id="Design" stroke="none" stroke-width="1" fill="none" fill-rule="evenodd">
        <g id="sub-blocks-1" transform="translate(-140.000000, -21.000000)">
            <g id="Ny-Logga" transform="translate(140.000000, 21.000000)">
                <mask id="mask-2" fill="white">
                    <use xlink:href="#path-1"></use>
                </mask>
                <g id="Clip-2"></g>
                <path d="M6.11576727,29.1018414 L5.74817455,30.9529394 C7.23329455,30.9529394 7.63832727,31.3199104 7.40290909,32.5052477 C7.40290909,32.5052477 3.16651636,54.1385972 2.65559273,56.4089827 C2.27968,58.0800891 2.27533091,58.4921997 0.369672727,58.5256294 L0,60.3882483 L12.6583127,60.3882483 L13.0279855,58.5256294 C11.6788218,58.5256294 11.0553891,58.130517 11.2849455,56.9735099 L14.4516509,41.0283061 L28.1981818,60.3882483 L38.0970909,60.3882483 L43.6085236,32.5052477 C43.8269236,31.4045234 44.0595055,30.9812696 45.3591273,30.9812696 L45.7288,29.1186507 L34.0123491,29.1186507 L33.6426764,30.9812696 C34.7728727,30.9812696 35.0512145,31.4893252 34.8606109,32.4487761 L32.0471273,46.6163517 L19.4353309,29.1018414 L6.11576727,29.1018414 Z M67.6970036,28.4489238 C53.0095564,28.2500455 48.3533818,34.2885419 46.5112582,43.1982137 C44.2631564,54.0719267 46.0975273,61.0058475 60.8556945,60.9999963 C65.2227491,60.9981039 74.4560582,60.3546297 74.4560582,60.3546297 L76.9513018,50.2698195 L74.8090909,50.2701972 C74.5209164,51.7805768 72.5447273,52.6533371 62.6374982,52.6533371 C56.7662255,52.6533371 54.1802182,52.0376265 56.3661091,43.3636623 C57.53488,38.7260019 59.2637382,36.7763148 66.0634473,36.5819693 C74.7389382,36.3337964 76.1077673,37.7361433 76.12176,39.0778635 L78.3301527,39.081452 L80.3553164,29.3468036 C80.3553164,29.3468036 71.396,28.4989739 67.6970036,28.4489238 L67.6970036,28.4489238 Z M102.875665,28.4489238 C88.1880291,28.2500455 83.5318545,34.2885419 81.6897309,43.1982137 C79.4416291,54.0719267 81.2761891,61.0058475 96.0341673,60.9999963 C100.401411,60.9981039 109.63472,60.3546297 109.63472,60.3546297 L112.129775,50.2698195 L109.987564,50.2701972 C109.699389,51.7805768 107.7232,52.6533371 97.8159709,52.6533371 C91.9446982,52.6533371 89.35888,52.0376265 91.5447709,43.3636623 C92.7135418,38.7260019 94.4424,36.7763148 101.24192,36.5819693 C109.9176,36.3337964 111.286429,37.7361433 111.300422,39.0778635 L113.508625,39.081452 L115.533978,29.3468036 C115.533978,29.3468036 106.574473,28.4989739 102.875665,28.4489238 L102.875665,28.4489238 Z M126.086953,25.8149669 L115.512989,45.5339476 L156,15.6993712 L75.0679564,15.6993712 L126.086953,25.8149669 Z M147.350415,41.3350282 L144.604436,26.3047023 L136.94304,31.9658399 L147.350415,41.3350282 Z M140.039215,2 L142.34688,14.2073118 L133.074051,14.2073118 L140.039215,2 Z" id="Fill-1" fill="#000000" mask="url(#mask-2)"></path>
            </g>
        </g>
    </g>
</svg>