<svg width="32" height="32" viewBox="0 0 32 32" fill="none" xmlns="http://www.w3.org/2000/svg">
<path d="M5.33203 8.33398C5.33203 7.53833 5.6481 6.77527 6.21071 6.21266C6.77332 5.65006 7.53638 5.33398 8.33203 5.33398H19.6654C20.461 5.33398 21.2241 5.65006 21.7867 6.21266C22.3493 6.77527 22.6654 7.53833 22.6654 8.33398V18.6673H27.332V23.0007C27.332 24.1499 26.8755 25.2521 26.0628 26.0648C25.2502 26.8774 24.148 27.334 22.9987 27.334H8.33203C7.53638 27.334 6.77332 27.0179 6.21071 26.4553C5.6481 25.8927 5.33203 25.1296 5.33203 24.334V8.33398ZM22.6654 25.334H22.9987C23.6175 25.334 24.211 25.0882 24.6486 24.6506C25.0862 24.213 25.332 23.6195 25.332 23.0007V20.6673H22.6654V25.334ZM10.332 10.6673C10.0668 10.6673 9.81246 10.7727 9.62492 10.9602C9.43739 11.1477 9.33203 11.4021 9.33203 11.6673C9.33203 11.9325 9.43739 12.1869 9.62492 12.3744C9.81246 12.562 10.0668 12.6673 10.332 12.6673H17.6654C17.9306 12.6673 18.1849 12.562 18.3725 12.3744C18.56 12.1869 18.6654 11.9325 18.6654 11.6673C18.6654 11.4021 18.56 11.1477 18.3725 10.9602C18.1849 10.7727 17.9306 10.6673 17.6654 10.6673H10.332ZM10.332 15.334C10.0668 15.334 9.81246 15.4393 9.62492 15.6269C9.43739 15.8144 9.33203 16.0688 9.33203 16.334C9.33203 16.5992 9.43739 16.8536 9.62492 17.0411C9.81246 17.2286 10.0668 17.334 10.332 17.334H17.6654C17.9306 17.334 18.1849 17.2286 18.3725 17.0411C18.56 16.8536 18.6654 16.5992 18.6654 16.334C18.6654 16.0688 18.56 15.8144 18.3725 15.6269C18.1849 15.4393 17.9306 15.334 17.6654 15.334H10.332ZM10.332 20.0007C10.0668 20.0007 9.81246 20.106 9.62492 20.2935C9.43739 20.4811 9.33203 20.7354 9.33203 21.0007C9.33203 21.2659 9.43739 21.5202 9.62492 21.7078C9.81246 21.8953 10.0668 22.0007 10.332 22.0007H13.6654C13.9306 22.0007 14.1849 21.8953 14.3725 21.7078C14.56 21.5202 14.6654 21.2659 14.6654 21.0007C14.6654 20.7354 14.56 20.4811 14.3725 20.2935C14.1849 20.106 13.9306 20.0007 13.6654 20.0007H10.332Z" fill="#B8B8B8"/>
</svg>
