<?xml version="1.0" encoding="UTF-8"?><svg id="Layer_1" xmlns="http://www.w3.org/2000/svg" viewBox="0 0 1280 401.66"><defs><style>.cls-1{fill:none;}.cls-2{fill:#e6e7e8;}.cls-3{fill:#f05a09;}</style></defs><path class="cls-2" d="M639.18,165.64v102.69c0,36.38-28.25,51.7-56.97,51.7-22.5,0-40.6-4.85-54.89-19.58l17.53-22.35c12.43,11.44,27.12,14.59,38.57,13.45,15.01-1.49,24.42-7.9,24.42-23.22v-10.05c-7.18,8.86-17.47,14.12-31.6,14.12-30.64,0-53.14-25.13-53.14-54.82s22.5-54.82,53.14-54.82c14.12,0,24.42,5.27,31.6,14.12v-11.01h31.36v-.24Zm-31.6,51.94c0-14.84-10.77-25.13-26.09-25.13s-26.09,10.05-26.09,25.13,10.77,25.13,26.09,25.13,26.09-10.29,26.09-25.13Z"/><path class="cls-2" d="M969.75,164.93v108.2h-32.32v-10.05c-5.74,7.9-16.76,13.17-30.88,13.17-21.78,0-40.45-15.56-40.45-44.76v-66.55h32.32v61.52c0,13.4,8.38,19.63,18.91,19.63,11.97,0,20.11-6.94,20.11-22.26v-58.89h32.32Z"/><path class="cls-2" d="M1151.7,219.63c0,32.32-23.46,56.97-51.7,56.97-14.6,0-25.13-5.03-32.32-13.17v53.38h-32.32V165.54h32.32v10.05c7.18-8.14,17.71-13.17,32.32-13.17,28.25,.24,51.7,25.13,51.7,57.21Zm-31.97,.59c0-16.28-10.77-26.33-25.61-26.33s-25.61,10.05-25.61,26.33,10.77,26.33,25.61,26.33,25.61-10.05,25.61-26.33Z"/><path class="cls-2" d="M463.86,200.83c0,40.93-30.4,72.53-70.37,72.53h-57.93V128.3h57.93c39.97,0,70.37,31.6,70.37,72.53Zm-31.84,0c0-24.89-15.8-40.45-38.54-40.45h-24.66v81.15h24.89c22.74-.24,38.3-15.8,38.3-40.69Z"/><path class="cls-1" d="M399.71,0c40.93,0,72.53,30.4,72.53,70.37v57.93h-145.06v-57.93C327.18,30.4,358.78,0,399.71,0Zm0,31.84c-24.89,0-40.45,15.8-40.45,38.54v24.66h81.15v-24.89c-.24-22.74-15.8-38.3-40.69-38.3Z"/><path class="cls-1" d="M399.71,401.66c-40.93,0-72.53-30.4-72.53-70.37v-57.93s145.06,0,145.06,0v57.93c0,39.97-31.6,70.37-72.53,70.37Zm0-31.84c24.89,0,40.45-15.8,40.45-38.54v-24.66s-81.15,0-81.15,0v24.89c.24,22.74,15.8,38.3,40.69,38.3Z"/><path class="cls-1" d="M1280,239.62c0,40.93-30.4,72.53-70.37,72.53h-57.93V167.09h57.93c39.97,0,70.37,31.6,70.37,72.53Zm-31.84,0c0-24.89-15.8-40.45-38.54-40.45h-24.66v81.15h24.89c22.74-.24,38.3-15.8,38.3-40.69Z"/><path class="cls-1" d="M0,239.49c0-40.93,30.4-72.53,70.37-72.53h57.93v145.06h-57.93C30.4,312.02,0,280.42,0,239.49Zm31.84,0c0,24.89,15.8,40.45,38.54,40.45h24.66v-81.15h-24.89c-22.74,.24-38.3,15.8-38.3,40.69Z"/><rect class="cls-2" x="477.23" y="165.17" width="32.32" height="108.2"/><rect class="cls-2" x="655.95" y="165.17" width="32.32" height="108.2"/><rect class="cls-2" x="986.62" y="165.17" width="32.32" height="108.2"/><path class="cls-2" d="M852.36,202.75c0-42.13-33.75-74.44-75.4-74.44s-75.4,32.32-75.4,74.44,33.75,74.44,75.4,74.44c12.21,0,23.94-2.87,33.99-7.66l22.83,23.16,22.45-21.19-20.39-21.61c10.29-12.93,16.52-29.2,16.52-47.16Zm-75.64,42.85c-6.22,0-12.21-1.2-17.47-3.59-4.79-2.15-9.34-5.03-12.93-8.62-8.14-7.66-13.17-18.67-13.17-30.64,0-23.7,19.39-42.85,43.33-42.85s43.33,19.15,43.33,42.85c.48,23.7-19.15,42.85-43.09,42.85Z"/><circle class="cls-2" cx="493.51" cy="136.93" r="18.21"/><circle class="cls-2" cx="671.97" cy="136.93" r="18.21"/><circle class="cls-2" cx="1002.78" cy="136.93" r="18.21"/><g id="brandmark"><path class="cls-3" d="M220.47,253.62l-55.42-.13-36.75,22.26v7.32h175.24V120.51c-87.62,0-132.35,76.81-132.35,118.36l49.28,14.75Z"/></g></svg>