<?xml version="1.0" encoding="UTF-8"?><svg id="Layer_1" xmlns="http://www.w3.org/2000/svg" viewBox="0 0 562.26 395.46"><defs><style>.cls-1{fill:none;}.cls-2{fill:#e6e7e8;}.cls-3{fill:#f05a09;}</style></defs><path class="cls-2" d="M435.76,197.71c0-40.19-29.85-71.21-69.09-71.21h-56.87v142.42h56.87c10.51,0,20.33-2.24,29.1-6.27l16.49,18.49,23.5-20.45-15.58-17.15c9.8-12.27,15.58-28.16,15.58-45.84Zm-93.3,39.95v-79.67h24.21c22.33,0,37.84,15.28,37.84,39.72s-15.28,39.72-37.6,39.95h-24.44Z"/><path class="cls-1" d="M562.26,197.71c0,40.19-29.85,71.21-69.09,71.21h-56.87V126.5h56.87c39.25,0,69.09,31.02,69.09,71.21Zm-31.26,0c0-24.44-15.51-39.72-37.84-39.72h-24.21v79.67h24.44c22.33-.24,37.6-15.51,37.6-39.95Z"/><path class="cls-1" d="M303.27,0c40.19,0,71.21,29.85,71.21,69.09v56.87H232.06v-56.87C232.06,29.85,263.08,0,303.27,0Zm0,31.26c-24.44,0-39.72,15.51-39.72,37.84v24.21h79.67v-24.44c-.24-22.33-15.51-37.6-39.95-37.6Z"/><path class="cls-1" d="M0,209.25c0-40.19,29.85-71.21,69.09-71.21h56.87s0,142.42,0,142.42h-56.87C29.85,280.46,0,249.44,0,209.25Zm31.26,0c0,24.44,15.51,39.72,37.84,39.72h24.21v-79.67h-24.44c-22.33,.24-37.6,15.51-37.6,39.95Z"/><path class="cls-1" d="M293.24,395.46c-40.19,0-71.21-29.85-71.21-69.09v-56.87s142.42,0,142.42,0v56.87c0,39.25-31.02,69.09-71.21,69.09Zm0-31.26c24.44,0,39.72-15.51,39.72-37.84v-24.21h-79.67v24.44c.24,22.33,15.51,37.6,39.95,37.6Z"/><g id="brandmark"><path class="cls-3" d="M206.46,242.94l-48.89-.11-32.41,19.64v6.45h154.57V125.54c-77.28,0-116.74,67.75-116.74,104.4l43.47,13.01Z"/></g></svg>